<mxfile host="app.diagrams.net" modified="2021-09-01T10:50:09.134Z" agent="5.0 (Macintosh; Intel Mac OS X 10_15_7) AppleWebKit/537.36 (KHTML, like Gecko) Chrome/92.0.4515.131 Safari/537.36" etag="Ux_zrKSxZSWibitPO270" version="15.0.4" type="github">
  <diagram id="Lk6UFa2Xtc2BME266vnq" name="Page-1">
    <mxGraphModel dx="926" dy="620" grid="1" gridSize="10" guides="1" tooltips="1" connect="1" arrows="1" fold="1" page="1" pageScale="1" pageWidth="827" pageHeight="1169" math="0" shadow="0">
      <root>
        <mxCell id="0" />
        <mxCell id="1" parent="0" />
        <mxCell id="wns3vAZ2l3ByfKBJz97j-18" value="" style="ellipse;whiteSpace=wrap;html=1;fillColor=#dae8fc;strokeColor=#6c8ebf;" vertex="1" parent="1">
          <mxGeometry x="70" y="100" width="300" height="170" as="geometry" />
        </mxCell>
        <mxCell id="wns3vAZ2l3ByfKBJz97j-17" value="" style="ellipse;whiteSpace=wrap;html=1;fillColor=#f8cecc;strokeColor=#b85450;" vertex="1" parent="1">
          <mxGeometry x="410" y="140" width="329.41" height="252.27" as="geometry" />
        </mxCell>
        <mxCell id="wns3vAZ2l3ByfKBJz97j-15" style="edgeStyle=none;shape=link;rounded=0;orthogonalLoop=1;jettySize=auto;html=1;entryX=-0.011;entryY=0.486;entryDx=0;entryDy=0;entryPerimeter=0;" edge="1" parent="1" source="wns3vAZ2l3ByfKBJz97j-1" target="wns3vAZ2l3ByfKBJz97j-2">
          <mxGeometry relative="1" as="geometry" />
        </mxCell>
        <mxCell id="wns3vAZ2l3ByfKBJz97j-1" value="&lt;span style=&quot;font-size: 22px&quot;&gt;服务器B&lt;/span&gt;" style="aspect=fixed;html=1;points=[];align=center;image;fontSize=12;image=img/lib/azure2/management_governance/MachinesAzureArc.svg;" vertex="1" parent="1">
          <mxGeometry x="340" y="160" width="100.59" height="155.45" as="geometry" />
        </mxCell>
        <mxCell id="wns3vAZ2l3ByfKBJz97j-2" value="&lt;font style=&quot;font-size: 22px&quot;&gt;服务器C&lt;/font&gt;" style="aspect=fixed;html=1;points=[];align=center;image;fontSize=12;image=img/lib/azure2/management_governance/MachinesAzureArc.svg;" vertex="1" parent="1">
          <mxGeometry x="580" y="180" width="87.65" height="135.45" as="geometry" />
        </mxCell>
        <mxCell id="wns3vAZ2l3ByfKBJz97j-11" value="" style="rounded=0;orthogonalLoop=1;jettySize=auto;html=1;entryX=-0.011;entryY=0.521;entryDx=0;entryDy=0;entryPerimeter=0;shape=link;" edge="1" parent="1" source="wns3vAZ2l3ByfKBJz97j-3" target="wns3vAZ2l3ByfKBJz97j-1">
          <mxGeometry relative="1" as="geometry">
            <mxPoint x="285.0050000000001" y="260" as="targetPoint" />
          </mxGeometry>
        </mxCell>
        <mxCell id="wns3vAZ2l3ByfKBJz97j-3" value="&lt;font style=&quot;font-size: 22px&quot;&gt;服务器A&lt;/font&gt;" style="aspect=fixed;html=1;points=[];align=center;image;fontSize=12;image=img/lib/azure2/management_governance/MachinesAzureArc.svg;" vertex="1" parent="1">
          <mxGeometry x="100" y="180" width="90.59" height="140" as="geometry" />
        </mxCell>
        <mxCell id="wns3vAZ2l3ByfKBJz97j-4" value="网卡1: 10.2.148.190" style="rounded=0;whiteSpace=wrap;html=1;" vertex="1" parent="1">
          <mxGeometry x="270" y="140" width="140" height="40" as="geometry" />
        </mxCell>
        <mxCell id="wns3vAZ2l3ByfKBJz97j-5" value="网卡2: 172.16.99.128" style="rounded=0;whiteSpace=wrap;html=1;" vertex="1" parent="1">
          <mxGeometry x="350" y="285.45" width="150" height="30" as="geometry" />
        </mxCell>
        <mxCell id="wns3vAZ2l3ByfKBJz97j-8" value="网卡: 10.2.150.37" style="rounded=0;whiteSpace=wrap;html=1;" vertex="1" parent="1">
          <mxGeometry x="80" y="150" width="120" height="40" as="geometry" />
        </mxCell>
        <mxCell id="wns3vAZ2l3ByfKBJz97j-9" value="网卡:&amp;nbsp; 172.16.99.129" style="rounded=0;whiteSpace=wrap;html=1;" vertex="1" parent="1">
          <mxGeometry x="610" y="285.45" width="170" height="34.55" as="geometry" />
        </mxCell>
      </root>
    </mxGraphModel>
  </diagram>
</mxfile>
